<svg width="26" height="26" viewBox="0 0 26 26" fill="none" xmlns="http://www.w3.org/2000/svg">
<g clip-path="url(#clip0_22_191)">
<path d="M13.2616 2.28657C16.6543 2.28657 17.0561 2.30145 18.3903 2.36097C19.6303 2.41553 20.2999 2.62386 20.7463 2.79746C21.3366 3.02562 21.7631 3.30338 22.2046 3.74482C22.651 4.19122 22.9238 4.61283 23.1519 5.20307C23.3255 5.64947 23.5339 6.32404 23.5884 7.55908C23.6479 8.89829 23.6628 9.30005 23.6628 12.6878C23.6628 16.0804 23.6479 16.4822 23.5884 17.8164C23.5339 19.0564 23.3255 19.726 23.1519 20.1724C22.9238 20.7627 22.646 21.1892 22.2046 21.6307C21.7582 22.0771 21.3366 22.3499 20.7463 22.5781C20.2999 22.7517 19.6254 22.96 18.3903 23.0145C17.0511 23.0741 16.6493 23.0889 13.2616 23.0889C9.86898 23.0889 9.46722 23.0741 8.13297 23.0145C6.89296 22.96 6.22336 22.7517 5.77696 22.5781C5.18671 22.3499 4.76015 22.0721 4.31871 21.6307C3.8723 21.1843 3.5995 20.7627 3.37134 20.1724C3.19774 19.726 2.98942 19.0515 2.93486 17.8164C2.87534 16.4772 2.86046 16.0755 2.86046 12.6878C2.86046 9.29509 2.87534 8.89333 2.93486 7.55908C2.98942 6.31908 3.19774 5.64947 3.37134 5.20307C3.5995 4.61283 3.87726 4.18626 4.31871 3.74482C4.76511 3.29842 5.18671 3.02562 5.77696 2.79746C6.22336 2.62386 6.89792 2.41553 8.13297 2.36097C9.46722 2.30145 9.86898 2.28657 13.2616 2.28657ZM13.2616 0C9.81442 0 9.3829 0.0148801 8.02881 0.0744004C6.67968 0.133921 5.75216 0.352162 4.94863 0.664644C4.11039 0.992006 3.4011 1.42353 2.69678 2.13281C1.98749 2.83714 1.55597 3.54642 1.22861 4.37971C0.916127 5.18819 0.697886 6.11076 0.638365 7.45988C0.578845 8.81893 0.563965 9.25045 0.563965 12.6977C0.563965 16.1449 0.578845 16.5764 0.638365 17.9305C0.697886 19.2796 0.916127 20.2072 1.22861 21.0107C1.55597 21.8489 1.98749 22.5582 2.69678 23.2625C3.4011 23.9669 4.11039 24.4033 4.94367 24.7257C5.75216 25.0382 6.67472 25.2565 8.02385 25.316C9.37794 25.3755 9.80946 25.3904 13.2567 25.3904C16.7039 25.3904 17.1354 25.3755 18.4895 25.316C19.8386 25.2565 20.7662 25.0382 21.5697 24.7257C22.403 24.4033 23.1123 23.9669 23.8166 23.2625C24.5209 22.5582 24.9574 21.8489 25.2798 21.0156C25.5923 20.2072 25.8105 19.2846 25.87 17.9355C25.9296 16.5814 25.9444 16.1499 25.9444 12.7026C25.9444 9.25541 25.9296 8.82389 25.87 7.4698C25.8105 6.12068 25.5923 5.19315 25.2798 4.38963C24.9673 3.54642 24.5358 2.83714 23.8265 2.13281C23.1222 1.42849 22.4129 0.992006 21.5796 0.669604C20.7711 0.357122 19.8486 0.138881 18.4994 0.0793605C17.1404 0.0148801 16.7089 0 13.2616 0Z" fill="#CCA67D"/>
<path d="M13.2617 6.17529C9.66072 6.17529 6.73926 9.09675 6.73926 12.6977C6.73926 16.2987 9.66072 19.2202 13.2617 19.2202C16.8627 19.2202 19.7841 16.2987 19.7841 12.6977C19.7841 9.09675 16.8627 6.17529 13.2617 6.17529ZM13.2617 16.9286C10.9255 16.9286 9.03079 15.0339 9.03079 12.6977C9.03079 10.3616 10.9255 8.46683 13.2617 8.46683C15.5979 8.46683 17.4926 10.3616 17.4926 12.6977C17.4926 15.0339 15.5979 16.9286 13.2617 16.9286Z" fill="#CCA67D"/>
<path d="M21.5647 5.91726C21.5647 6.76047 20.8803 7.43999 20.042 7.43999C19.1988 7.43999 18.5193 6.75551 18.5193 5.91726C18.5193 5.07406 19.2038 4.39453 20.042 4.39453C20.8803 4.39453 21.5647 5.07902 21.5647 5.91726Z" fill="#CCA67D"/>
</g>
<defs>
<clipPath id="clip0_22_191">
<rect width="25.3953" height="25.3953" fill="white" transform="translate(0.563965)"/>
</clipPath>
</defs>
</svg>
