<svg width="26" height="26" viewBox="0 0 26 26" fill="none" xmlns="http://www.w3.org/2000/svg">
<g clip-path="url(#clip0_1_208)">
<path d="M18.9068 11.7703C18.7974 11.7178 18.6863 11.6674 18.5737 11.619C18.3777 8.00723 16.4041 5.93947 13.0903 5.91831C13.0753 5.91821 13.0604 5.91821 13.0453 5.91821C11.0632 5.91821 9.41475 6.76428 8.40011 8.30384L10.2226 9.55405C10.9806 8.40405 12.1702 8.15889 13.0462 8.15889C13.0563 8.15889 13.0665 8.15889 13.0765 8.15898C14.1676 8.16594 14.991 8.48318 15.5239 9.10185C15.9117 9.55226 16.1711 10.1747 16.2995 10.9602C15.3321 10.7958 14.2859 10.7452 13.1674 10.8093C10.0168 10.9908 7.99129 12.8283 8.12733 15.3816C8.19636 16.6768 8.84158 17.791 9.94407 18.5189C10.8762 19.1342 12.0768 19.4351 13.3245 19.367C14.9722 19.2767 16.2649 18.648 17.1667 17.4985C17.8515 16.6255 18.2847 15.4942 18.476 14.0688C19.2613 14.5427 19.8432 15.1663 20.1646 15.916C20.7112 17.1904 20.743 19.2846 19.0343 20.9919C17.5371 22.4876 15.7375 23.1346 13.0178 23.1546C10.0008 23.1323 7.71917 22.1647 6.2357 20.2788C4.84655 18.5129 4.12863 15.9623 4.10185 12.6977C4.12863 9.43302 4.84655 6.88235 6.2357 5.11646C7.71917 3.23062 10.0008 2.2631 13.0177 2.24068C16.0565 2.26327 18.378 3.23545 19.9182 5.13039C20.6735 6.05965 21.2429 7.22826 21.6183 8.59081L23.754 8.02099C23.299 6.34384 22.583 4.89862 21.6087 3.70005C19.6341 1.27065 16.7462 0.0258117 13.0252 0H13.0103C9.29683 0.0257221 6.44125 1.2753 4.52287 3.71398C2.81577 5.8841 1.9352 8.90368 1.90561 12.6887L1.90552 12.6977L1.90561 12.7066C1.9352 16.4916 2.81577 19.5113 4.52287 21.6814C6.44125 24.12 9.29683 25.3697 13.0103 25.3953H13.0252C16.3266 25.3725 18.6537 24.5081 20.5708 22.5927C23.079 20.0869 23.0035 16.946 22.1768 15.0178C21.5837 13.6351 20.453 12.512 18.9068 11.7703ZM13.2065 17.1296C11.8256 17.2073 10.3911 16.5875 10.3203 15.26C10.2679 14.2756 11.0208 13.1773 13.2913 13.0464C13.5513 13.0314 13.8064 13.0241 14.0571 13.0241C14.8817 13.0241 15.6533 13.1042 16.3547 13.2576C16.0931 16.5248 14.5585 17.0554 13.2065 17.1296Z" fill="#F7F7F7"/>
</g>
<defs>
<clipPath id="clip0_1_208">
<rect width="25.3953" height="25.3953" fill="white" transform="translate(0.186035)"/>
</clipPath>
</defs>
</svg>
