<svg width="26" height="26" viewBox="0 0 26 26" fill="none" xmlns="http://www.w3.org/2000/svg">
<g clip-path="url(#clip0_22_194)">
<path d="M18.9766 11.7703C18.8672 11.7178 18.7561 11.6674 18.6436 11.619C18.4475 8.00723 16.474 5.93947 13.1601 5.91831C13.1451 5.91821 13.1302 5.91821 13.1152 5.91821C11.1331 5.91821 9.48457 6.76428 8.46994 8.30384L10.2925 9.55405C11.0504 8.40405 12.24 8.15889 13.116 8.15889C13.1262 8.15889 13.1363 8.15889 13.1463 8.15898C14.2375 8.16594 15.0608 8.48318 15.5937 9.10185C15.9815 9.55226 16.2409 10.1747 16.3693 10.9602C15.4019 10.7958 14.3557 10.7452 13.2373 10.8093C10.0866 10.9908 8.06111 12.8283 8.19715 15.3816C8.26618 16.6768 8.91141 17.791 10.0139 18.5189C10.946 19.1342 12.1466 19.4351 13.3943 19.367C15.042 19.2767 16.3347 18.648 17.2365 17.4985C17.9214 16.6255 18.3545 15.4942 18.5458 14.0688C19.3311 14.5427 19.9131 15.1663 20.2345 15.916C20.781 17.1904 20.8129 19.2846 19.1041 20.9919C17.607 22.4876 15.8073 23.1346 13.0876 23.1546C10.0707 23.1323 7.789 22.1647 6.30553 20.2788C4.91637 18.5129 4.19845 15.9623 4.17167 12.6977C4.19845 9.43302 4.91637 6.88235 6.30553 5.11646C7.789 3.23062 10.0706 2.2631 13.0876 2.24068C16.1264 2.26327 18.4478 3.23545 19.9881 5.13039C20.7433 6.05965 21.3127 7.22826 21.6881 8.59081L23.8238 8.02099C23.3688 6.34384 22.6528 4.89862 21.6786 3.70005C19.7039 1.27065 16.816 0.0258117 13.095 0H13.0801C9.36666 0.0257221 6.51107 1.2753 4.59269 3.71398C2.88559 5.8841 2.00502 8.90368 1.97543 12.6887L1.97534 12.6977L1.97543 12.7066C2.00502 16.4916 2.88559 19.5113 4.59269 21.6814C6.51107 24.12 9.36666 25.3697 13.0801 25.3953H13.095C16.3965 25.3725 18.7236 24.5081 20.6407 22.5927C23.1488 20.0869 23.0733 16.946 22.2466 15.0178C21.6536 13.6351 20.5228 12.512 18.9766 11.7703ZM13.2763 17.1296C11.8955 17.2073 10.4609 16.5875 10.3901 15.26C10.3377 14.2756 11.0907 13.1773 13.3611 13.0464C13.6211 13.0314 13.8762 13.0241 14.1269 13.0241C14.9516 13.0241 15.7231 13.1042 16.4245 13.2576C16.1629 16.5248 14.6283 17.0554 13.2763 17.1296Z" fill="#CCA67D"/>
</g>
<defs>
<clipPath id="clip0_22_194">
<rect width="25.3953" height="25.3953" fill="white" transform="translate(0.255859)"/>
</clipPath>
</defs>
</svg>
