<svg width="26" height="26" viewBox="0 0 26 26" fill="none" xmlns="http://www.w3.org/2000/svg">
<g clip-path="url(#clip0_22_190)">
<path d="M12.6977 0C5.685 0 0 5.685 0 12.6977C0 18.6524 4.09983 23.6492 9.63042 25.0215V16.5781H7.01216V12.6977H9.63042V11.0256C9.63042 6.70386 11.5864 4.70068 15.8294 4.70068C16.634 4.70068 18.0221 4.85864 18.5899 5.01609V8.53334C18.2902 8.50185 17.7696 8.48611 17.1231 8.48611C15.0412 8.48611 14.2366 9.27489 14.2366 11.3253V12.6977H18.3842L17.6716 16.5781H14.2366V25.3024C20.524 24.5431 25.3959 19.1897 25.3959 12.6977C25.3954 5.685 19.7103 0 12.6977 0Z" fill="#CCA67D"/>
</g>
<defs>
<clipPath id="clip0_22_190">
<rect width="25.3953" height="25.3953" fill="white"/>
</clipPath>
</defs>
</svg>
