<svg width="26" height="26" viewBox="0 0 26 26" fill="none" xmlns="http://www.w3.org/2000/svg">
<g clip-path="url(#clip0_1_205)">
<path d="M13.0931 2.28657C16.4857 2.28657 16.8875 2.30145 18.2217 2.36097C19.4617 2.41553 20.1313 2.62386 20.5777 2.79746C21.168 3.02562 21.5946 3.30338 22.036 3.74482C22.4824 4.19122 22.7552 4.61283 22.9834 5.20307C23.157 5.64947 23.3653 6.32404 23.4198 7.55908C23.4794 8.89829 23.4942 9.30005 23.4942 12.6878C23.4942 16.0804 23.4794 16.4822 23.4198 17.8164C23.3653 19.0564 23.157 19.726 22.9834 20.1724C22.7552 20.7627 22.4774 21.1892 22.036 21.6307C21.5896 22.0771 21.168 22.3499 20.5777 22.5781C20.1313 22.7517 19.4568 22.96 18.2217 23.0145C16.8825 23.0741 16.4808 23.0889 13.0931 23.0889C9.7004 23.0889 9.29864 23.0741 7.96439 23.0145C6.72438 22.96 6.05478 22.7517 5.60838 22.5781C5.01813 22.3499 4.59157 22.0721 4.15013 21.6307C3.70373 21.1843 3.43092 20.7627 3.20276 20.1724C3.02916 19.726 2.82084 19.0515 2.76628 17.8164C2.70676 16.4772 2.69188 16.0755 2.69188 12.6878C2.69188 9.29509 2.70676 8.89333 2.76628 7.55908C2.82084 6.31908 3.02916 5.64947 3.20276 5.20307C3.43092 4.61283 3.70869 4.18626 4.15013 3.74482C4.59653 3.29842 5.01813 3.02562 5.60838 2.79746C6.05478 2.62386 6.72934 2.41553 7.96439 2.36097C9.29864 2.30145 9.7004 2.28657 13.0931 2.28657ZM13.0931 0C9.64584 0 9.21432 0.0148801 7.86023 0.0744004C6.5111 0.133921 5.58358 0.352162 4.78005 0.664644C3.94181 0.992006 3.23252 1.42353 2.5282 2.13281C1.81891 2.83714 1.38739 3.54642 1.06003 4.37971C0.747548 5.18819 0.529307 6.11076 0.469786 7.45988C0.410266 8.81893 0.395386 9.25045 0.395386 12.6977C0.395386 16.1449 0.410266 16.5764 0.469786 17.9305C0.529307 19.2796 0.747548 20.2072 1.06003 21.0107C1.38739 21.8489 1.81891 22.5582 2.5282 23.2625C3.23252 23.9669 3.94181 24.4033 4.77509 24.7257C5.58358 25.0382 6.50614 25.2565 7.85527 25.316C9.20936 25.3755 9.64088 25.3904 13.0881 25.3904C16.5353 25.3904 16.9668 25.3755 18.3209 25.316C19.6701 25.2565 20.5976 25.0382 21.4011 24.7257C22.2344 24.4033 22.9437 23.9669 23.648 23.2625C24.3523 22.5582 24.7888 21.8489 25.1112 21.0156C25.4237 20.2072 25.6419 19.2846 25.7015 17.9355C25.761 16.5814 25.7759 16.1499 25.7759 12.7026C25.7759 9.25541 25.761 8.82389 25.7015 7.4698C25.6419 6.12068 25.4237 5.19315 25.1112 4.38963C24.7987 3.54642 24.3672 2.83714 23.6579 2.13281C22.9536 1.42849 22.2443 0.992006 21.411 0.669604C20.6025 0.357122 19.68 0.138881 18.3309 0.0793605C16.9718 0.0148801 16.5403 0 13.0931 0Z" fill="#F7F7F7"/>
<path d="M13.0931 6.17524C9.49214 6.17524 6.57068 9.09669 6.57068 12.6977C6.57068 16.2987 9.49214 19.2201 13.0931 19.2201C16.6941 19.2201 19.6156 16.2987 19.6156 12.6977C19.6156 9.09669 16.6941 6.17524 13.0931 6.17524ZM13.0931 16.9286C10.7569 16.9286 8.86221 15.0338 8.86221 12.6977C8.86221 10.3615 10.7569 8.46677 13.0931 8.46677C15.4293 8.46677 17.324 10.3615 17.324 12.6977C17.324 15.0338 15.4293 16.9286 13.0931 16.9286Z" fill="#F7F7F7"/>
<path d="M21.3962 5.91727C21.3962 6.76048 20.7117 7.44 19.8734 7.44C19.0302 7.44 18.3507 6.75552 18.3507 5.91727C18.3507 5.07406 19.0352 4.39454 19.8734 4.39454C20.7117 4.39454 21.3962 5.07902 21.3962 5.91727Z" fill="#F7F7F7"/>
</g>
<defs>
<clipPath id="clip0_1_205">
<rect width="25.3953" height="25.3953" fill="white" transform="translate(0.395386)"/>
</clipPath>
</defs>
</svg>
