<svg width="25" height="26" viewBox="0 0 25 26" fill="none" xmlns="http://www.w3.org/2000/svg">
<g clip-path="url(#clip0_1_25)">
<path d="M6.8125 5.60368C6.875 6.53076 7.03125 7.43701 7.28125 8.3016L6.03125 9.5516C5.60417 8.3016 5.33333 6.97868 5.23958 5.60368H6.8125ZM17.0833 18.1245C17.9687 18.3745 18.875 18.5308 19.7917 18.5933V20.1453C18.4167 20.0516 17.0937 19.7808 15.8333 19.3641L17.0833 18.1245ZM7.8125 3.52035H4.16667C3.59375 3.52035 3.125 3.9891 3.125 4.56201C3.125 14.3433 11.0521 22.2703 20.8333 22.2703C21.4062 22.2703 21.875 21.8016 21.875 21.2287V17.5933C21.875 17.0203 21.4062 16.5516 20.8333 16.5516C19.5417 16.5516 18.2812 16.3433 17.1146 15.9578C17.0104 15.9162 16.8958 15.9058 16.7917 15.9058C16.5208 15.9058 16.2604 16.0099 16.0521 16.2078L13.7604 18.4995C10.8125 16.9891 8.39583 14.5828 6.89583 11.6349L9.1875 9.34326C9.47917 9.0516 9.5625 8.64535 9.44792 8.28076C9.0625 7.1141 8.85417 5.8641 8.85417 4.56201C8.85417 3.9891 8.38542 3.52035 7.8125 3.52035Z" fill="#F7F7F7"/>
</g>
<defs>
<clipPath id="clip0_1_25">
<rect width="25" height="25" fill="white" transform="translate(0 0.395348)"/>
</clipPath>
</defs>
</svg>
