<svg width="132" height="24" viewBox="0 0 132 24" fill="none" xmlns="http://www.w3.org/2000/svg">
<g clip-path="url(#clip0_9_80)">
<path d="M12 17.27L18.18 21L16.54 13.97L22 9.24L14.81 8.63L12 2L9.19 8.63L2 9.24L7.46 13.97L5.82 21L12 17.27Z" fill="#FFD113"/>
</g>
<g clip-path="url(#clip1_9_80)">
<path d="M39 17.27L45.18 21L43.54 13.97L49 9.24L41.81 8.63L39 2L36.19 8.63L29 9.24L34.46 13.97L32.82 21L39 17.27Z" fill="#FFD113"/>
</g>
<g clip-path="url(#clip2_9_80)">
<path d="M66 17.27L72.18 21L70.54 13.97L76 9.24L68.81 8.63L66 2L63.19 8.63L56 9.24L61.46 13.97L59.82 21L66 17.27Z" fill="#FFD113"/>
</g>
<g clip-path="url(#clip3_9_80)">
<path d="M93 17.27L99.18 21L97.54 13.97L103 9.24L95.81 8.63L93 2L90.19 8.63L83 9.24L88.46 13.97L86.82 21L93 17.27Z" fill="#FFD113"/>
</g>
<g clip-path="url(#clip4_9_80)">
<path d="M120 17.27L126.18 21L124.54 13.97L130 9.24L122.81 8.63L120 2L117.19 8.63L110 9.24L115.46 13.97L113.82 21L120 17.27Z" fill="#FFD113"/>
</g>
<defs>
<clipPath id="clip0_9_80">
<rect width="24" height="24" fill="white"/>
</clipPath>
<clipPath id="clip1_9_80">
<rect width="24" height="24" fill="white" transform="translate(27)"/>
</clipPath>
<clipPath id="clip2_9_80">
<rect width="24" height="24" fill="white" transform="translate(54)"/>
</clipPath>
<clipPath id="clip3_9_80">
<rect width="24" height="24" fill="white" transform="translate(81)"/>
</clipPath>
<clipPath id="clip4_9_80">
<rect width="24" height="24" fill="white" transform="translate(108)"/>
</clipPath>
</defs>
</svg>
